<?xml version="1.0" encoding="utf-8"?>
<svg fill="#000000" width="800px" height="800px" viewBox="0 0 32 32" xmlns="http://www.w3.org/2000/svg">
  <path d="M 15.817 3.421 C 18.932 3.421 21.749 4.625 23.896 6.874 C 25.527 8.567 26.443 10.363 26.912 12.729 C 27.073 13.516 27.073 15.661 26.921 16.546 C 26.421 19.363 24.88 21.885 22.604 23.609 C 21.792 24.224 19.807 25.292 19.489 25.292 C 19.369 25.292 19.36 25.172 19.412 24.677 C 19.511 23.885 19.604 23.724 20.052 23.536 C 20.765 23.24 21.984 22.369 22.729 21.625 C 24.03 20.322 24.958 18.693 25.406 16.906 C 25.687 15.806 25.65 13.363 25.343 12.234 C 24.374 8.639 21.436 5.849 17.843 5.098 C 16.802 4.885 14.9 4.885 13.843 5.098 C 10.207 5.849 7.196 8.781 6.28 12.469 C 6.035 13.473 6.035 15.917 6.28 16.917 C 6.889 19.36 8.468 21.598 10.535 22.932 C 10.942 23.203 11.431 23.479 11.635 23.563 C 12.082 23.755 12.182 23.918 12.264 24.703 C 12.316 25.188 12.305 25.323 12.192 25.323 C 12.119 25.323 11.572 25.088 10.993 24.812 L 10.941 24.771 C 7.644 23.151 5.534 20.407 4.764 16.755 C 4.577 15.812 4.54 13.568 4.728 12.703 C 5.207 10.38 6.124 8.568 7.649 6.964 C 9.848 4.645 12.676 3.421 15.821 3.421 L 15.817 3.421 Z M 16 7.172 C 16.541 7.177 17.068 7.224 17.473 7.312 C 21.188 8.14 23.817 11.855 23.306 15.541 C 23.103 17.03 22.593 18.25 21.687 19.385 C 21.239 19.958 20.15 20.917 19.958 20.917 C 19.926 20.917 19.895 20.552 19.895 20.114 L 19.895 19.306 L 20.447 18.645 C 22.54 16.14 22.39 12.64 20.108 10.349 C 19.223 9.453 18.196 8.926 16.873 8.688 C 16.02 8.527 15.842 8.527 14.946 8.677 C 13.582 8.896 12.529 9.421 11.591 10.349 C 9.3 12.62 9.148 16.14 11.243 18.645 L 11.795 19.306 L 11.795 20.119 C 11.795 20.567 11.758 20.926 11.711 20.926 C 11.675 20.926 11.362 20.713 11.028 20.447 L 10.981 20.431 C 9.872 19.546 8.893 17.978 8.486 16.436 C 8.242 15.504 8.242 13.739 8.497 12.811 C 9.169 10.306 11.018 8.363 13.576 7.452 C 14.123 7.259 15.085 7.155 15.992 7.171 L 16 7.172 Z M 15.823 11.156 C 16.24 11.156 16.651 11.24 16.954 11.396 C 17.599 11.735 18.137 12.385 18.339 13.073 C 18.959 15.177 16.73 17.021 14.708 16.078 L 14.693 16.078 C 13.74 15.635 13.229 14.802 13.218 13.718 C 13.218 12.739 13.759 11.89 14.702 11.39 C 14.999 11.234 15.411 11.155 15.827 11.155 L 15.823 11.156 Z M 15.812 17.464 C 17.131 17.459 18.083 17.927 18.437 18.755 C 18.702 19.375 18.604 21.328 18.145 24.49 C 17.838 26.698 17.666 27.255 17.24 27.631 C 16.651 28.151 15.823 28.298 15.031 28.016 L 15.027 28.016 C 14.074 27.672 13.87 27.208 13.474 24.489 C 13.022 21.328 12.922 19.374 13.189 18.754 C 13.537 17.931 14.485 17.469 15.813 17.463 L 15.812 17.464 Z"/>
</svg>