<?xml version="1.0" encoding="utf-8"?>
<svg version="1.1" width="32" height="32" viewBox="0 0 32 32" xmlns="http://www.w3.org/2000/svg">
  <title>apple-music</title>
  <path d="M 23.432 13.484 L 23.432 21.099 C 23.432 21.656 23.354 22.203 23.104 22.708 C 22.719 23.494 22.094 23.989 21.255 24.229 C 20.791 24.364 20.312 24.437 19.828 24.458 C 18.562 24.521 17.463 23.661 17.239 22.411 C 17.046 21.38 17.541 20.244 18.624 19.713 C 19.051 19.505 19.515 19.38 19.978 19.286 C 20.483 19.177 20.988 19.078 21.488 18.963 C 21.858 18.88 22.097 18.656 22.17 18.275 C 22.191 18.192 22.196 18.103 22.196 18.02 C 22.196 15.598 22.196 13.176 22.196 10.76 C 22.196 10.677 22.18 10.593 22.16 10.515 C 22.108 10.312 21.962 10.192 21.754 10.202 C 21.54 10.212 21.332 10.249 21.124 10.291 C 20.108 10.489 19.093 10.692 18.082 10.9 L 13.15 11.895 C 13.129 11.9 13.103 11.911 13.082 11.911 C 12.712 12.015 12.582 12.182 12.566 12.567 C 12.561 12.624 12.566 12.682 12.566 12.739 C 12.561 16.208 12.566 19.677 12.561 23.145 C 12.561 23.708 12.498 24.26 12.275 24.78 C 11.905 25.634 11.249 26.171 10.364 26.426 C 9.895 26.561 9.416 26.64 8.926 26.655 C 7.65 26.702 6.587 25.853 6.369 24.598 C 6.181 23.515 6.676 22.348 7.905 21.827 C 8.384 21.629 8.879 21.52 9.384 21.416 C 9.764 21.338 10.15 21.26 10.53 21.182 C 11.04 21.073 11.306 20.75 11.332 20.229 L 11.332 20.031 C 11.332 16.083 11.332 12.135 11.332 8.187 C 11.332 8.02 11.353 7.854 11.389 7.692 C 11.483 7.312 11.754 7.093 12.118 7.004 C 12.457 6.915 12.806 6.853 13.149 6.78 C 14.128 6.582 15.102 6.384 16.081 6.191 L 19.107 5.576 C 20.003 5.399 20.893 5.217 21.789 5.04 C 22.081 4.983 22.378 4.92 22.674 4.899 C 23.085 4.863 23.372 5.123 23.414 5.54 C 23.424 5.639 23.43 5.738 23.43 5.837 C 23.43 8.384 23.43 10.931 23.43 13.478 L 23.432 13.484 Z"/>
</svg>