<svg id="Layer_3" height="512" viewBox="0 0 24 24" width="512" xmlns="http://www.w3.org/2000/svg" data-name="Layer 3"><path d="m18.5 4h-12a2.5 2.5 0 0 0 -2.5 2.5v10a2.5 2.5 0 0 0 2.5 2.5h12a2.5 2.5 0 0 0 2.5-2.5v-3a.5.5 0 0 0 -1 0v3a1.5 1.5 0 0 1 -1.5 1.5h-12a1.5 1.5 0 0 1 -1.5-1.5v-9.5h15v1a.5.5 0 0 0 1 0v-1.5a2.5 2.5 0 0 0 -2.5-2.5zm-12 1h12a1.5 1.5 0 0 1 1.408 1h-14.816a1.5 1.5 0 0 1 1.408-1zm6 12h2a.5.5 0 0 0 .354-.146l5.292-5.293a1.5 1.5 0 0 0 0-2.122l-.585-.585a1.5 1.5 0 0 0 -2.122 0l-5.293 5.292a.5.5 0 0 0 -.146.354v2a.5.5 0 0 0 .5.5zm6.354-7.439.585.585a.5.5 0 0 1 0 .708l-.439.439-1.293-1.293.439-.439a.5.5 0 0 1 .708 0zm-5.854 5.146 4-4 1.293 1.293-4 4h-1.293zm-7-5.207a.5.5 0 0 1 .5-.5h8a.5.5 0 0 1 0 1h-8a.5.5 0 0 1 -.5-.5zm5.5 3.5h-5a.5.5 0 0 1 0-1h5a.5.5 0 0 1 0 1zm-1 2a.5.5 0 0 1 0 1h-4a.5.5 0 0 1 0-1z"/></svg>