<svg width="800" height="800" viewBox="0 0 192 192" xmlns="http://www.w3.org/2000/svg" fill="none"><path d="M475.333 68.013c-17.595 3.214-35.695 12.848-50.949 27.117-35.466 33.176-45.754 83.994-28.924 142.87 6.818 23.851 17.977 48.13 36.913 80.317l8.263 14.044 31.349-.77c18.185-.446 36.947-1.659 44.682-2.887 64.837-10.3 108.436-37.083 128.119-78.704 7.845-16.589 9.963-25.341 10.813-44.69.632-14.405.342-18.114-2.117-27.08-9.967-36.329-39.146-63.741-74.843-70.311-7.499-1.381-9.15-2.226-12-6.15-4.946-6.805-19.325-18.432-29.242-23.643-4.826-2.536-13.264-5.875-18.752-7.42-11.36-3.199-33.131-4.553-43.312-2.693m-147.11 13.134c-5.962 3.178-20.667 17.913-26.22 26.274-13.476 20.289-18.992 44.38-17.602 76.877.605 14.127.417 18.181-.806 17.394-.877-.564-5.796-3.809-10.932-7.21-12.51-8.286-28.649-16.267-39.812-19.685-25.347-7.763-53.777-5.718-76.115 5.474-25.738 12.896-49.079 38.633-59.532 65.644-23.819 61.547-.495 118.067 60.463 146.513 4.95 2.31 9 4.53 9 4.933 0 .403-4.05 2.73-9 5.171-29.368 14.481-51.036 35.865-60.933 60.135-15.061 36.935-6.889 83.413 20.787 118.227 34.149 42.957 84.94 55.093 133.768 31.963 6.751-3.198 16.815-8.878 22.365-12.624l10.091-6.809-.696 18.288c-1.461 38.371 8.545 67.117 31.047 89.191 28.288 27.751 73.617 38.938 115.237 28.439 14.425-3.638 35.976-14.153 45.38-22.141 15.788-13.41 27.366-31.081 33.111-50.534 3.826-12.955 5.942-33.704 4.866-47.723l-.899-11.722 9.105 6.62c24.999 18.177 55.257 27.236 80.427 24.08 26.015-3.262 44.088-12.183 64.486-31.831 12.86-12.387 20.653-23.081 27.423-37.633 9.233-19.848 11.369-29.673 11.401-52.458.026-17.58-.354-21.129-3.134-29.333-10.212-30.135-30.439-52.5-62.307-68.889-13.003-6.688-16.22-9.111-12.095-9.111 3.212 0 26.727-12.102 37.764-19.435 12.19-8.099 26.881-23.12 33.626-34.379 9.178-15.321 15.264-39.768 12.959-52.057-1.047-5.579-7.3-13.296-13.279-16.388-5.271-2.725-16.396-2.725-21.667 0-7.129 3.687-12.131 10.663-13.751 19.178-2.504 13.161-4.198 18.056-8.659 25.025-16.528 25.821-63.72 43.602-129.363 48.741-27.353 2.142-29.432 2.49-34.264 5.747-13.479 9.083-15.4 26.97-4.139 38.547 6.012 6.18 8.36 6.933 32.343 10.368 72.722 10.414 118.632 31.81 132.756 61.869 15.906 33.851-16.931 88.938-55.076 92.397-33.039 2.996-73.871-29.647-115.814-92.588-14.556-21.842-18.971-25.913-28.963-26.697-15.77-1.238-27.538 10.153-27.563 26.682-.004 3.185 2.466 10.472 6.78 20 19.991 44.151 29.271 75.247 31.33 104.99 1.668 24.083-3.855 42.896-16.154 55.021-16.261 16.032-46.838 21.9-71.963 13.811-30.606-9.855-42.115-29.471-40.258-68.614 1.305-27.484 9.757-57.003 28.43-99.292 10.164-23.019 11.057-28.67 5.962-37.737-1.676-2.981-5.511-7.018-8.524-8.971-10.335-6.702-26.1-3.809-33.262 6.103-44.043 60.954-75.391 90.4-107.015 100.52-21.19 6.781-39.663 1.733-56.635-15.476-15.049-15.26-23.156-34.366-23.208-54.699-.025-9.517.545-12.58 3.552-19.114 4.809-10.448 10.569-17.447 20.176-24.519 24.773-18.238 66.232-30.097 122.354-35 17.546-1.533 21.476-2.672 26.88-7.785 5.639-5.335 7.548-9.951 7.548-18.248 0-8.321-1.933-12.974-7.548-18.171-5.925-5.484-8.603-6.363-21.958-7.21-57.558-3.65-104.848-16.544-129.817-35.396-22.424-16.93-28.452-41.81-17.081-70.506 12.577-31.744 41.525-50.343 68.583-44.064 3.935.913 11.954 3.912 17.821 6.664 26.655 12.504 52.684 37.09 86 81.233 13.861 18.366 19.71 22.809 29.949 22.754 11.085-.061 21.793-8.028 24.659-18.346 2.391-8.609 2.423-8.496-10.611-38.292-17.615-40.27-25.338-70.782-25.313-100 .022-25.029 3.795-35.273 18.683-50.73 13.187-13.689 14.929-23.458 6.424-36.026-6.153-9.092-21.62-12.732-31.568-7.43m183.984 39.161c13.787 6.355 23.261 19.337 24.768 33.936.402 3.899 1.171 7.089 1.709 7.089.537 0 3.847-1.269 7.354-2.82 4.521-2 9.206-2.839 16.101-2.884 16.589-.107 30.199 8.46 40.041 25.205 3.597 6.12 3.816 7.356 3.744 21.166-.062 11.967-.631 16.076-3.092 22.324-13.233 33.591-56.668 55.099-116.967 57.919l-17.468.817-8.736-17.197c-15.823-31.144-22.466-55.195-22.428-81.196.034-22.564 5.126-37.16 17.738-50.843 5.819-6.313 15.896-13.21 23.423-16.031 7.619-2.856 24.96-1.567 33.813 2.515" fill-rule="evenodd" fill="#000"/></svg>