<svg viewBox="0 0 48 48" xmlns="http://www.w3.org/2000/svg"><path d="M16.858 12.7c-.131.145-8.378 22.09-8.378 22.294 0 .164.402.457.587.43.086-.013.222-.114.302-.224.186-.258 8.311-21.973 8.311-22.214 0-.12-.08-.223-.236-.304-.305-.158-.43-.154-.586.018m10.952-.037c-.084.061-1.791 4.512-4.296 11.202-4.457 11.904-4.264 11.316-3.779 11.501.252.095.479.032.583-.163.043-.08 1.933-5.102 4.201-11.159 4.409-11.781 4.227-11.227 3.751-11.408-.259-.098-.292-.096-.46.027m10.872.055c-.172.19-8.362 22.024-8.362 22.292 0 .125.077.226.236.308.305.158.43.154.586-.018.129-.143 8.378-22.097 8.378-22.298 0-.141-.379-.442-.558-.442-.076 0-.202.071-.28.158" fill-rule="evenodd"/></svg>