<?xml version="1.0" encoding="utf-8"?>
<svg width="800px" height="800px" viewBox="0 0 192 192" fill="none" xmlns="http://www.w3.org/2000/svg">
  <path stroke-linecap="round" stroke-linejoin="round" stroke-width="12" d="M96 170c40.869 0 74-33.131 74-74 0-40.87-33.131-74-74-74-40.87 0-74 33.13-74 74 0 40.869 33.13 74 74 74Z" style=""/>
  <path d="M 16 96 C 16 74.339 25.284 53.578 39.431 39.431 C 53.578 25.284 74.339 16 96 16 C 117.66 16 138.421 25.284 152.569 39.431 C 166.716 53.578 176 74.339 176 96 C 176 117.66 166.716 138.421 152.569 152.569 C 138.421 166.716 117.66 176 96 176 C 74.339 176 53.578 166.716 39.431 152.569 C 25.284 138.421 16 117.66 16 96 Z M 47.916 144.083 C 60.552 156.719 76.791 164 96 164 C 115.209 164 131.448 156.719 144.083 144.083 C 156.719 131.448 164 115.209 164 96 C 164 76.791 156.719 60.552 144.083 47.916 C 131.448 35.281 115.209 28 96 28 C 76.791 28 60.552 35.281 47.916 47.916 C 35.281 60.552 28 76.791 28 96 C 28 115.209 35.281 131.448 47.916 144.083 Z" style="fill: rgb(0, 0, 0);"/>
  <path stroke-linecap="round" stroke-linejoin="round" stroke-width="12" d="M74 130V62l60 34-60 34Z" style=""/>
  <path d="M 68 51.704 L 146.17 96 L 68 140.296 L 68 51.704 Z" style="fill: rgb(0, 0, 0);"/>
  <path d="M 121.83 96 L 80 72.296 L 80 119.704 L 121.83 96 Z" style="fill: rgb(0, 0, 0);"/>
  <path d="M 147.184 96 L 67.5 141.154 L 67.5 50.846 Z M 68.5 139.438 L 145.156 96 L 68.5 52.562 Z M 79.5 71.438 L 122.844 96 L 79.5 120.562 Z M 120.816 96 L 80.5 73.154 L 80.5 118.846 Z" style=""/>
</svg>